# xmcd
#
# Track frame offsets:
#	150
#	31374
#	79292
#	123951
#	172177
#	221970
#	245949
#	250047
#	286627
#
# Disc length: 4566 seconds
#
# Revision: 1
# Processed by: cddbd v1.5.2PL0 Copyright (c) Steve Scherf et al.
# Submitted via: audiograbber 1.83.01
#
DISCID=8411d409
DTITLE=Popa Chubby - Live Kulturfabrik Roth - 02.04.2004
DYEAR=1900
DGENRE=Blues Rock
TTITLE0=Ten Few Pale
TTITLE1=Un-American Blues
TTITLE2=The Man On The News
TTITLE3=Sweet Release
TTITLE4=Life Is A Beat Down
TTITLE5=Top 10 Reasons Why I Can't Sleep Night
TTITLE6=Introducing The Band
TTITLE7=Only Someone We Can Lead On
TTITLE8=Nobody Love Me Like I Love Myself
EXTD=
EXTT0=
EXTT1=
EXTT2=
EXTT3=
EXTT4=
EXTT5=
EXTT6=
EXTT7=
EXTT8=
PLAYORDER=
